<?xml version="1.0" standalone="no"?>
<!DOCTYPE svg PUBLIC "-//W3C//DTD SVG 20010904//EN"
 "http://www.w3.org/TR/2001/REC-SVG-20010904/DTD/svg10.dtd">
<svg version="1.0" xmlns="http://www.w3.org/2000/svg"
 width="1591px" height="546px" viewBox="0 0 1591 546"
 preserveAspectRatio="xMidYMid meet">

<g transform="translate(0.000000,546.000000) scale(0.100000,-0.100000)"
fill="#161614" stroke="none">
<path fill="#F9DC3E" d="M5983 5234 c-21 -22 -55 -58 -75 -82 -20 -23 -45 -42 -56 -42 -31 0
-69 53 -96 133 -3 10 -11 15 -16 12 -7 -5 -9 -31 -4 -74 5 -56 3 -70 -11 -84
-20 -21 -28 -21 -83 -2 -50 18 -69 11 -95 -34 l-18 -31 35 0 c19 0 51 -7 70
-16 33 -16 36 -16 68 4 73 47 76 48 106 19 23 -22 34 -25 72 -22 68 7 183 52
215 85 19 19 31 46 36 77 9 59 -6 79 -68 89 -40 6 -45 4 -80 -32z m89 -58 c12
-18 4 -30 -33 -48 -41 -21 -109 -24 -109 -5 0 18 50 64 75 70 25 6 58 -2 67
-17z"/>
<path fill="#F9DC3E" d="M12390 5146 c-25 -24 -58 -60 -73 -80 -33 -42 -55 -45 -84 -13 -21
23 -53 87 -53 106 0 13 -17 15 -25 2 -3 -6 2 -39 11 -75 23 -92 1 -114 -81
-85 -37 14 -73 7 -103 -18 -42 -35 -32 -46 43 -48 39 -1 77 -5 86 -9 12 -5 27
4 52 29 l35 37 27 -30 c25 -28 28 -29 53 -16 15 8 41 14 57 14 17 0 59 15 95
33 59 30 68 39 94 92 l29 59 -29 23 c-45 36 -82 30 -134 -21z m88 -59 c3 -12
-9 -23 -40 -37 -58 -26 -98 -26 -98 0 0 47 130 82 138 37z"/>
<path fill="#F9DC3E" d="M9110 5083 c1 -21 7 -56 15 -78 18 -50 18 -75 0 -99 -14 -19 -32 -19
-133 0 -29 6 -37 1 -77 -39 -25 -24 -45 -52 -45 -61 0 -15 5 -14 41 5 23 11
51 18 63 15 11 -2 37 -9 56 -14 42 -10 96 10 103 39 8 30 53 24 79 -11 18 -26
24 -28 37 -17 9 8 59 24 111 36 148 36 193 71 214 167 6 28 3 35 -23 53 -73
52 -123 35 -208 -69 -32 -39 -65 -72 -74 -75 -29 -10 -65 12 -78 47 -7 18 -19
49 -26 68 -7 19 -16 43 -19 53 -3 9 -12 17 -21 17 -11 0 -15 -10 -15 -37z
m378 -62 c20 -13 10 -44 -18 -58 -38 -18 -130 -28 -130 -14 0 20 33 63 54 71
28 11 78 12 94 1z"/>
<path fill="#F9DC3E" d="M5265 4966 c-11 -7 -61 -27 -112 -44 -50 -17 -100 -35 -110 -41 -27
-16 -161 -70 -223 -91 -30 -10 -68 -24 -85 -31 -16 -7 -48 -18 -70 -25 -62
-19 -108 -38 -135 -56 -14 -9 -61 -30 -105 -47 -44 -17 -88 -36 -98 -42 -10
-5 -48 -19 -83 -30 -36 -11 -107 -40 -158 -64 -51 -24 -121 -55 -157 -69 -86
-36 -93 -39 -171 -75 -37 -17 -70 -31 -74 -31 -7 0 -201 -98 -262 -132 -18
-10 -60 -29 -94 -43 -33 -13 -85 -41 -116 -61 -30 -21 -77 -46 -105 -56 -50
-19 -151 -98 -162 -126 -3 -9 1 -22 9 -31 14 -13 19 -12 51 5 20 10 46 29 57
42 12 12 30 22 41 22 10 0 31 8 45 19 15 10 56 33 92 51 36 18 84 46 108 62
48 33 224 118 287 139 22 8 56 23 75 34 19 12 96 50 170 84 74 35 157 74 184
88 49 24 138 58 329 127 54 20 110 42 125 50 30 17 136 58 197 76 22 7 49 18
60 24 11 7 34 18 50 24 17 6 66 24 110 41 44 17 90 31 101 31 12 0 32 9 46 19
13 11 38 23 54 26 46 10 154 67 170 89 32 46 4 74 -41 42z"/>
<path fill="#F9DC3E" d="M7970 4954 c-25 -9 -69 -26 -98 -40 -29 -13 -55 -24 -59 -24 -3 0
-36 -14 -72 -31 -36 -17 -92 -35 -126 -41 -33 -5 -85 -15 -115 -22 -108 -23
-330 -10 -405 25 -11 5 -51 20 -89 34 -38 14 -81 35 -95 46 -23 18 -26 19 -37
4 -18 -24 -5 -55 46 -112 26 -28 57 -72 69 -98 18 -39 24 -45 36 -35 8 7 15
24 15 37 0 25 1 25 63 20 34 -3 82 -10 107 -15 53 -12 237 -1 350 21 79 15
182 54 314 119 88 43 139 49 156 19 16 -30 12 -59 -10 -81 -11 -11 -20 -25
-20 -30 0 -6 -12 -28 -26 -50 -15 -22 -24 -43 -20 -47 12 -13 37 22 99 141 26
49 35 137 16 153 -26 20 -54 22 -99 7z"/>
<path fill="#F9DC3E" d="M6051 4906 c-20 -23 -63 -159 -58 -181 3 -11 12 -47 20 -80 9 -33 19
-98 23 -145 4 -47 11 -96 16 -110 6 -14 14 -63 19 -110 5 -47 13 -114 19 -150
5 -36 12 -83 15 -105 15 -112 48 -345 66 -460 11 -71 24 -157 29 -190 17 -113
40 -300 50 -415 6 -63 15 -153 19 -200 5 -47 10 -132 11 -190 1 -102 10 -134
29 -114 15 14 40 120 50 209 9 84 8 358 -1 410 -6 28 -12 99 -23 255 -3 36 -9
83 -15 105 -5 22 -12 94 -16 160 -3 66 -10 131 -15 145 -5 14 -16 72 -25 130
-21 146 -41 267 -53 320 -5 25 -15 91 -21 148 -18 155 -2 184 56 101 18 -27
34 -39 50 -39 13 0 24 4 24 8 0 19 -40 122 -77 197 -62 127 -93 195 -93 205 0
14 -70 110 -80 110 -4 0 -13 -6 -19 -14z"/>
<path fill="#F9DC3E" d="M5511 4824 c-11 -15 -21 -34 -21 -43 0 -10 -7 -26 -15 -37 -8 -10
-20 -36 -25 -57 -10 -33 -8 -44 11 -80 21 -40 29 -82 59 -312 6 -44 16 -98 21
-119 6 -22 15 -74 20 -115 5 -42 15 -112 23 -156 9 -44 22 -131 31 -194 9 -63
19 -119 22 -124 3 -5 14 -66 24 -135 10 -70 32 -206 49 -302 58 -330 63 -407
31 -439 -43 -43 -188 -58 -250 -26 -20 10 -52 47 -88 101 -30 47 -60 83 -66
81 -12 -4 -17 -18 -36 -100 -19 -83 -14 -128 20 -183 18 -27 41 -71 52 -99 10
-27 25 -63 33 -80 7 -16 23 -63 35 -104 18 -63 20 -79 10 -112 -7 -22 -16 -39
-21 -39 -5 0 -53 -43 -107 -95 -54 -52 -101 -95 -104 -95 -4 0 -30 -19 -57
-42 -28 -24 -72 -54 -99 -68 -26 -14 -57 -32 -68 -41 -11 -10 -34 -25 -52 -36
-189 -108 -309 -182 -329 -200 -14 -13 -31 -23 -39 -23 -7 0 -94 -40 -192 -89
-98 -49 -212 -103 -253 -120 -41 -18 -83 -36 -92 -41 -10 -6 -29 -10 -43 -10
-44 0 -52 31 -70 297 -3 41 0 83 6 100 11 28 31 158 49 323 13 110 34 166 70
185 16 8 34 15 40 15 6 0 26 11 44 25 18 14 41 25 52 25 10 0 39 14 64 30 25
16 68 37 95 46 28 9 62 25 76 35 15 11 62 34 105 53 44 18 141 63 218 100 76
36 144 66 151 66 19 0 47 37 43 57 -5 25 -33 28 -65 5 -16 -10 -44 -25 -63
-32 -19 -7 -78 -33 -130 -58 -52 -24 -124 -57 -160 -74 -36 -16 -94 -44 -130
-63 -36 -18 -85 -39 -110 -46 -25 -7 -52 -18 -60 -25 -8 -6 -62 -35 -120 -64
-58 -28 -121 -61 -140 -71 -19 -11 -68 -35 -107 -55 -50 -23 -77 -43 -87 -63
-28 -52 -1 -54 84 -6 56 31 90 43 90 30 0 -2 -20 -44 -44 -92 -24 -48 -54
-128 -66 -178 -20 -79 -23 -111 -21 -270 3 -257 31 -392 107 -526 87 -153 187
-239 351 -300 103 -38 148 -44 348 -44 142 0 187 4 270 23 280 65 427 116 636
222 214 108 268 139 333 194 28 23 69 55 91 71 97 69 199 176 235 247 30 56
52 180 59 323 l6 130 62 17 c143 38 249 122 299 237 38 86 53 105 70 90 8 -6
14 -18 14 -26 0 -28 74 -138 130 -192 47 -47 68 -59 150 -88 103 -35 133 -39
195 -22 49 14 109 74 137 138 28 65 37 225 15 283 -8 24 -18 55 -21 69 -4 16
-27 42 -61 68 -30 23 -55 46 -55 51 0 15 31 27 85 34 28 4 91 14 140 22 82 13
207 30 400 54 128 16 508 12 664 -7 l144 -17 29 35 c39 46 94 158 82 168 -15
13 -120 39 -244 60 -63 11 -133 26 -155 35 -22 8 -48 15 -57 16 -21 0 -268 79
-283 90 -5 4 -41 15 -80 24 -38 9 -106 31 -150 47 -73 28 -112 45 -230 99 -22
10 -98 42 -170 71 -121 48 -136 52 -220 53 -63 1 -110 -5 -155 -18 -62 -19
-110 -49 -110 -69 0 -5 -16 -35 -35 -67 -19 -32 -35 -67 -35 -78 0 -24 -5 -23
219 -47 121 -13 162 -15 195 -5 39 10 47 8 156 -38 63 -27 126 -53 140 -56 36
-10 173 -68 188 -79 7 -6 9 -13 5 -17 -15 -14 -398 -74 -638 -101 -108 -12
-199 -33 -228 -54 -12 -8 -33 -32 -47 -53 -14 -20 -36 -38 -48 -40 -25 -4 -49
-45 -89 -151 -38 -101 -71 -152 -130 -199 -58 -47 -164 -92 -214 -92 -16 0
-50 5 -75 11 -45 12 -54 20 -182 168 -32 38 -58 38 -66 -1 -2 -13 -10 -48 -16
-79 -16 -74 -7 -117 34 -166 36 -41 108 -209 120 -278 4 -22 14 -70 23 -107
18 -79 14 -102 -29 -152 -60 -71 -264 -226 -370 -281 -32 -16 -101 -53 -155
-81 -54 -28 -109 -54 -123 -59 -14 -4 -57 -22 -96 -41 -65 -30 -213 -80 -274
-91 -14 -2 -79 -15 -145 -28 -144 -28 -360 -40 -469 -25 -95 14 -210 51 -290
96 -67 37 -181 147 -171 164 11 17 53 31 140 45 44 7 112 20 150 29 39 9 82
16 96 16 70 0 301 100 445 193 38 24 89 55 114 68 25 13 51 32 58 42 7 9 31
26 52 37 21 11 59 39 83 62 25 24 63 57 86 73 23 17 54 43 69 59 15 16 48 51
74 78 96 97 132 194 145 388 3 47 9 90 14 96 5 6 35 17 66 25 107 25 187 125
217 271 16 76 18 116 12 295 -9 264 -12 302 -24 334 -6 15 -11 52 -11 83 0 31
-9 89 -20 129 -21 76 -59 251 -65 302 -2 17 -9 77 -15 135 -6 58 -16 116 -21
130 -5 14 -14 63 -20 110 -5 47 -13 99 -16 116 -9 47 12 52 52 13 26 -25 37
-30 46 -21 8 8 6 27 -10 74 -45 135 -127 333 -153 370 -11 14 -19 30 -19 35 0
6 -8 18 -19 27 -18 16 -20 16 -40 -10z m1427 -2420 c84 -41 216 -143 237 -184
25 -48 11 -63 -49 -54 -111 15 -243 107 -291 202 -46 92 -28 99 103 36z"/>
<path fill="#F9DC3E" d="M8470 4770 c-47 -21 -105 -46 -130 -55 -25 -10 -81 -35 -125 -56 -76
-37 -177 -81 -420 -184 -60 -26 -141 -62 -180 -80 -78 -37 -111 -51 -205 -90
-36 -14 -96 -42 -135 -61 -273 -132 -367 -175 -381 -172 -13 2 -17 21 -20 97
-3 58 -10 101 -18 110 -7 9 -25 39 -41 66 -32 57 -185 215 -208 215 -14 0 -27
-20 -27 -40 0 -4 43 -52 95 -106 115 -118 149 -174 164 -273 14 -87 9 -109
-27 -117 -15 -4 -34 -12 -42 -19 -8 -7 -47 -31 -85 -53 -107 -61 -116 -71
-127 -133 -10 -58 -12 -88 -5 -96 7 -7 148 -63 158 -63 5 0 9 17 9 38 0 43
-29 82 -61 82 -28 0 -59 18 -59 33 0 26 96 84 308 187 67 33 146 67 174 77 29
9 79 33 112 53 34 21 72 40 86 44 14 4 66 27 115 52 50 24 119 55 155 68 63
24 144 58 225 96 104 48 245 110 251 110 4 0 26 8 48 19 23 10 68 31 101 46
33 15 78 35 100 45 64 29 145 64 219 95 69 29 103 62 92 90 -8 21 -19 18 -116
-25z"/>
<path fill="#F9DC3E" d="M11770 4724 c-47 -23 -92 -43 -100 -43 -8 -1 -73 -30 -145 -66 -71
-36 -136 -65 -144 -65 -19 0 -1116 -542 -1191 -588 -19 -12 -41 -22 -48 -22
-7 0 -28 -11 -45 -24 -18 -13 -63 -40 -102 -60 -78 -40 -106 -61 -124 -95 -27
-50 -6 -52 81 -7 46 23 98 51 116 61 19 11 75 44 124 73 50 28 94 52 99 52 5
0 31 14 57 30 27 17 56 30 64 30 9 0 27 9 41 20 14 12 41 26 59 32 17 6 57 26
88 43 30 17 89 46 130 65 41 19 82 39 90 46 32 25 490 243 790 375 211 93 280
135 280 174 0 24 -28 17 -120 -31z"/>
<path fill="#F9DC3E" d="M12192 4678 c-19 -40 -62 -154 -62 -167 0 -7 7 -33 15 -59 17 -55 58
-359 51 -377 -2 -7 2 -39 9 -72 8 -32 15 -80 15 -108 0 -27 7 -81 15 -120 8
-38 15 -89 15 -112 0 -23 4 -52 9 -65 5 -13 11 -54 15 -92 3 -37 8 -71 10 -75
2 -3 7 -45 11 -91 3 -47 8 -94 11 -106 3 -12 -1 -28 -11 -38 -16 -15 -16 -18
-2 -34 21 -23 33 -81 47 -222 6 -63 17 -158 25 -210 36 -232 44 -414 20 -447
-9 -12 -10 -22 -4 -29 5 -7 11 -27 13 -45 4 -51 17 -99 27 -99 12 0 22 20 35
65 7 22 20 65 29 95 20 66 22 275 5 495 -6 78 -10 145 -9 150 2 6 -3 28 -9 50
-7 22 -12 78 -12 125 0 47 -7 123 -16 170 -8 47 -22 144 -30 215 -20 180 -24
211 -28 280 -2 33 -9 75 -15 94 -6 19 -13 68 -17 110 -4 42 -10 83 -14 91 -5
8 -10 46 -11 85 -5 84 13 98 52 41 29 -43 65 -64 81 -48 8 8 -1 38 -35 114
-25 57 -51 121 -58 143 -6 22 -18 49 -25 60 -7 11 -27 56 -45 100 -61 156 -82
182 -107 133z"/>
<path fill="#F9DC3E" d="M9464 4658 c-4 -13 -18 -47 -31 -77 -36 -78 -39 -112 -15 -179 19
-54 23 -81 37 -242 3 -36 12 -114 19 -175 14 -104 34 -289 41 -365 3 -31 14
-125 30 -243 3 -22 8 -60 10 -85 2 -26 8 -76 14 -112 13 -87 23 -179 22 -210
0 -14 4 -43 10 -65 5 -22 14 -94 19 -160 5 -66 14 -154 19 -195 14 -111 30
-247 36 -315 13 -148 16 -187 20 -300 6 -133 13 -185 26 -185 37 0 79 198 79
371 0 115 -15 373 -31 519 l-10 95 37 30 c50 40 118 83 244 151 58 31 122 71
142 88 20 17 56 45 79 61 71 51 198 177 236 233 39 59 36 58 131 32 32 -10 49
-10 68 -1 51 23 56 105 9 166 -14 19 -25 37 -25 42 0 4 -19 20 -42 35 -24 15
-67 43 -96 63 -29 19 -59 35 -67 35 -28 0 -53 -38 -60 -87 -3 -26 -10 -72 -16
-100 -14 -69 -6 -89 42 -113 21 -11 39 -26 39 -33 0 -17 -92 -111 -155 -160
-121 -92 -271 -197 -282 -197 -6 0 -18 -9 -26 -20 -8 -11 -48 -44 -90 -73 -41
-28 -91 -65 -111 -81 -47 -37 -66 -29 -66 26 0 24 -4 79 -10 123 -5 44 -11
105 -14 135 -2 30 -13 111 -24 180 -12 69 -26 177 -32 240 -6 63 -17 156 -25
205 -8 50 -17 115 -19 145 -3 30 -12 100 -21 155 -28 191 -16 225 52 145 36
-42 70 -55 60 -22 -4 9 -12 37 -18 62 -14 54 -65 194 -85 234 -66 132 -128
246 -135 246 -4 0 -11 -10 -15 -22z m1066 -1159 c6 -10 10 -27 10 -39 0 -20
-4 -22 -37 -15 -21 3 -45 13 -53 21 -13 14 -12 18 13 39 29 26 51 24 67 -6z
m118 -39 c57 -35 33 -65 -32 -40 -25 9 -35 38 -19 53 10 10 15 9 51 -13z"/>
<path fill="#F9DC3E" d="M8874 4632 c-17 -11 -32 -45 -55 -118 -17 -55 -19 -74 -10 -108 24
-96 47 -248 82 -546 6 -47 17 -126 25 -176 8 -49 14 -105 14 -124 0 -19 4 -59
10 -89 19 -110 40 -257 44 -311 2 -30 9 -66 14 -80 5 -14 13 -62 17 -105 5
-70 21 -191 55 -427 12 -78 13 -229 2 -243 -16 -23 -95 -66 -140 -76 -87 -20
-160 13 -199 93 -12 24 -35 56 -51 71 -27 26 -29 27 -45 10 -9 -11 -21 -55
-28 -106 l-13 -87 42 -79 c62 -117 105 -252 106 -334 l1 -68 -57 -52 c-108
-98 -164 -141 -303 -234 -38 -25 -81 -54 -95 -63 -45 -31 -193 -117 -295 -170
-55 -29 -111 -61 -125 -70 -34 -24 -196 -100 -300 -141 -47 -18 -94 -39 -106
-46 -11 -7 -54 -25 -94 -39 -41 -14 -82 -30 -92 -35 -21 -11 -46 -2 -52 19 -3
10 -12 63 -21 120 -8 56 -19 110 -25 120 -17 31 -40 112 -40 142 0 16 -5 41
-10 56 -6 15 -8 34 -5 43 9 25 70 59 141 78 l64 17 17 53 17 53 -32 33 c-17
17 -51 43 -76 57 l-45 24 -27 -19 c-27 -21 -62 -91 -50 -102 4 -4 20 1 37 11
28 17 32 17 55 1 14 -9 24 -22 21 -28 -2 -7 -28 -24 -58 -38 -78 -38 -85 -49
-93 -132 -5 -62 -1 -90 30 -212 72 -280 79 -331 47 -342 -10 -3 -61 -25 -114
-49 -52 -24 -100 -44 -106 -44 -6 0 -36 -11 -67 -25 -94 -41 -64 -75 35 -39
24 8 121 31 214 49 94 19 211 44 260 55 50 11 140 31 202 45 111 24 236 78
384 165 104 62 124 74 168 97 25 13 50 23 56 23 7 0 20 10 31 21 10 12 66 53
124 92 219 147 378 291 407 369 40 106 61 213 62 319 1 40 6 71 14 77 6 5 44
17 82 25 64 14 74 21 120 70 50 53 66 86 101 202 15 50 18 98 18 285 1 124 -3
272 -7 330 -15 193 -35 394 -46 450 -6 30 -18 105 -27 165 -8 61 -18 117 -21
125 -5 16 -7 31 -17 165 -4 44 -9 94 -13 110 -3 17 -7 39 -9 50 -1 11 -8 53
-15 93 -10 58 -10 75 0 85 10 9 22 1 59 -41 43 -48 72 -65 72 -43 0 9 -56 159
-129 346 -38 97 -104 228 -117 232 -5 1 -14 -1 -20 -5z"/>
<path fill="#F9DC3E" d="M4860 4355 c-9 -24 -8 -40 4 -79 33 -100 12 -176 -48 -176 -35 0 -48
23 -52 92 -5 96 -12 118 -36 118 -19 0 -20 -4 -14 -57 3 -32 8 -88 10 -125 7
-97 14 -106 78 -100 42 3 60 11 85 35 l33 31 35 -17 c50 -24 82 -22 101 8 35
53 29 120 -20 227 -24 55 -42 61 -51 18 -5 -22 1 -47 25 -96 33 -71 30 -91
-13 -80 -27 6 -77 72 -77 102 0 30 -18 88 -34 109 -14 19 -15 19 -26 -10z"/>
<path fill="#F9DC3E" d="M13042 4320 c-65 -47 -99 -100 -96 -150 1 -38 6 -45 44 -67 41 -24
42 -27 36 -64 -3 -22 -3 -39 1 -39 17 0 172 86 211 117 73 60 47 92 -40 49
-58 -28 -86 -26 -147 10 -40 23 -45 40 -21 64 25 25 46 25 67 0 32 -38 53 -20
53 45 0 37 -21 65 -49 65 -10 0 -37 -14 -59 -30z"/>
<path fill="#F9DC3E" d="M14143 4238 c-17 -22 -43 -85 -50 -120 -3 -18 -14 -52 -25 -76 -21
-51 -22 -81 -6 -150 l11 -50 61 5 c64 6 106 22 144 56 17 16 22 31 22 71 0 68
-27 111 -85 136 l-45 19 0 61 c0 59 -8 73 -27 48z m47 -218 c21 -11 42 -24 45
-30 12 -19 -16 -40 -52 -40 -49 0 -73 16 -73 49 0 47 18 52 80 21z"/>
<path fill="#F9DC3E" d="M8201 4216 c-13 -15 -10 -36 21 -135 20 -63 20 -63 1 -90 -50 -66
-123 -27 -123 67 0 60 -19 114 -38 110 -21 -4 -27 -50 -13 -98 5 -19 13 -61
16 -94 12 -109 86 -141 165 -70 l40 36 33 -21 c42 -26 91 -27 116 -2 29 29 36
103 15 159 -27 71 -74 152 -89 152 -34 0 -29 -72 11 -152 31 -61 31 -78 0 -78
-31 0 -56 34 -56 77 0 42 -58 153 -80 153 -4 0 -13 -6 -19 -14z"/>
<path fill="#F9DC3E" d="M11821 4193 c-13 -25 -53 -168 -58 -208 -2 -16 0 -50 4 -75 8 -41 12
-46 47 -58 27 -9 42 -9 51 -2 15 12 45 99 45 129 0 29 -28 26 -40 -4 -11 -30
-31 -32 -55 -5 -23 25 -17 86 16 164 16 41 20 59 12 67 -8 8 -14 6 -22 -8z"/>
<path fill="#F9DC3E" d="M4156 4075 c-3 -9 -4 -21 -1 -26 3 -5 0 -19 -6 -31 -33 -61 -55 -255
-36 -321 26 -95 131 -87 144 11 4 28 2 42 -6 42 -6 0 -14 -7 -17 -15 -10 -24
-40 -17 -68 15 -27 33 -28 56 -6 175 11 57 20 111 23 139 3 24 -18 32 -27 11z"/>
<path fill="#F9DC3E" d="M11221 3986 c-9 -11 -7 -29 10 -79 19 -57 20 -71 9 -121 -13 -63 -37
-84 -84 -72 -35 9 -45 32 -57 134 -12 95 -25 130 -41 114 -13 -13 -12 -37 6
-167 19 -126 35 -158 86 -163 24 -3 39 3 61 24 16 15 29 32 29 38 0 5 7 18 16
28 16 17 18 16 52 -13 28 -25 41 -30 66 -25 63 12 89 86 61 172 -30 88 -57
144 -70 144 -26 0 -24 -48 5 -129 17 -45 28 -87 25 -92 -18 -29 -81 12 -90 59
-19 89 -47 162 -64 162 -5 0 -14 -6 -20 -14z"/>
<path fill="#F9DC3E" d="M7528 3844 c-23 -47 -41 -99 -41 -115 0 -16 -4 -29 -8 -29 -5 0 -14
-18 -20 -39 -15 -50 1 -95 42 -116 37 -20 48 -19 115 6 48 18 59 27 75 63 10
22 19 54 19 69 0 29 -28 87 -42 87 -4 0 -20 11 -35 25 -15 14 -34 29 -40 35
-8 7 -11 25 -6 55 9 71 -13 55 -59 -41z m68 -130 c68 -33 68 -66 -2 -83 -55
-14 -80 -3 -89 39 -12 56 26 75 91 44z"/>
<path fill="#F9DC3E" d="M2405 3838 c-18 -50 -45 -142 -55 -192 -21 -101 4 -156 70 -156 90 0
139 69 126 178 -8 65 -19 82 -55 82 -15 0 -37 7 -50 16 -19 14 -22 23 -18 50
5 32 -8 48 -18 22z m66 -181 c44 -29 43 -47 -3 -72 -35 -18 -40 -19 -65 -5
-28 16 -41 55 -29 86 8 21 59 17 97 -9z"/>
<path fill="#F9DC3E" d="M14846 3782 c-9 -15 -36 -156 -36 -187 0 -16 16 -75 35 -130 19 -55
35 -112 35 -126 0 -15 7 -32 14 -39 8 -6 22 -35 32 -63 9 -29 41 -97 71 -152
30 -55 59 -108 64 -118 12 -23 41 -103 69 -195 28 -91 21 -113 -42 -131 -33
-9 -59 -10 -101 -2 -123 22 -166 68 -179 190 -2 14 -9 26 -16 29 -18 6 -82
-62 -82 -87 0 -33 -56 -136 -92 -170 -83 -77 -268 -51 -268 38 0 15 9 51 20
81 26 70 26 70 -10 70 -34 0 -55 -18 -90 -80 -53 -92 -158 -172 -248 -186 -21
-3 -72 -1 -112 5 -61 10 -82 18 -119 49 -26 20 -53 45 -61 57 -26 35 -58 118
-65 170 -4 28 -14 58 -23 68 -19 21 -61 22 -108 2 -20 -8 -41 -12 -47 -8 -6 3
-7 1 -3 -5 9 -15 -43 -104 -103 -177 -28 -33 -62 -76 -77 -96 -15 -19 -54 -51
-86 -70 -32 -19 -58 -37 -58 -41 0 -6 -116 -56 -180 -77 -24 -8 -43 -25 -60
-52 -14 -23 -34 -51 -45 -64 -11 -12 -35 -51 -54 -86 -43 -81 -118 -179 -136
-179 -8 0 -27 -19 -43 -42 -36 -53 -82 -89 -189 -153 -45 -27 -123 -79 -173
-117 -50 -37 -94 -68 -98 -68 -4 0 -81 -38 -172 -84 -380 -193 -491 -247 -600
-291 -146 -59 -165 -68 -275 -120 -49 -24 -106 -50 -125 -58 -121 -50 -155
-64 -245 -105 -110 -51 -145 -76 -129 -92 11 -11 24 -9 184 31 47 12 103 25
125 29 22 5 61 16 85 24 25 9 59 16 76 16 53 0 272 60 358 97 161 70 334 147
381 171 35 17 110 58 217 119 43 23 79 43 82 43 3 0 34 20 69 45 36 25 68 45
72 45 12 0 150 84 195 119 144 113 240 221 334 375 10 17 24 35 32 39 8 4 14
15 14 22 0 8 3 15 8 15 8 0 92 -170 92 -187 0 -21 77 -91 155 -142 62 -41 87
-51 124 -53 69 -2 92 1 138 18 47 17 77 52 120 141 29 59 30 67 23 130 -19
159 -69 237 -181 290 -38 17 -72 38 -75 46 -3 9 21 49 58 97 35 45 81 106 103
136 97 129 149 122 180 -26 20 -92 98 -194 180 -232 39 -18 66 -23 125 -22 99
1 163 31 250 118 36 36 68 66 73 66 4 0 13 -12 19 -27 18 -42 68 -96 101 -110
104 -45 274 32 330 148 31 67 42 69 100 12 62 -60 125 -86 213 -86 112 0 195
73 229 202 8 31 19 68 24 82 15 48 -18 307 -48 374 -16 34 -82 188 -99 230 -9
22 -23 48 -31 57 -22 25 -62 131 -56 146 3 7 13 11 22 8 30 -9 47 8 39 39 -7
26 -49 80 -160 201 -49 54 -60 61 -70 46z m-1625 -1720 c89 -47 144 -98 129
-122 -7 -11 -19 -11 -68 0 -62 13 -73 19 -155 79 -43 32 -74 81 -59 96 12 11
68 -8 153 -53z"/>
<path fill="#F9DC3E" d="M13098 3433 c-19 -22 -38 -77 -38 -109 0 -30 21 -31 38 -3 9 14 21
19 40 17 38 -4 40 -32 3 -47 -88 -37 -126 -161 -82 -269 39 -95 73 -240 83
-352 6 -63 14 -119 19 -125 14 -15 32 10 33 47 1 43 -31 180 -57 243 -15 36
-21 78 -24 150 -2 55 -8 115 -13 134 -8 30 -6 36 23 62 18 17 56 37 86 45 31
10 68 30 89 50 l36 34 -34 35 c-44 45 -116 91 -156 99 -22 5 -34 2 -46 -11z"/>
<path fill="#F9DC3E" d="M3789 3436 c-2 -3 -42 -10 -88 -15 -47 -6 -94 -17 -106 -25 -24 -16
-105 -168 -105 -197 0 -11 9 -21 23 -23 43 -10 273 -30 352 -31 90 -2 181 -19
240 -45 22 -10 62 -21 88 -24 27 -3 61 -12 75 -20 15 -8 61 -19 101 -26 124
-18 128 -43 13 -81 -37 -11 -85 -30 -107 -40 -157 -73 -411 -144 -499 -140
-35 2 -165 78 -180 106 -6 11 -18 31 -27 45 -9 14 -26 54 -38 90 -13 36 -27
71 -33 78 -18 21 -63 13 -105 -17 -51 -37 -157 -172 -199 -254 -30 -56 -101
-112 -220 -173 -63 -32 -120 -66 -125 -76 -5 -10 -18 -18 -28 -18 -22 0 -52
-32 -82 -89 -32 -58 -39 -70 -71 -111 -14 -19 -33 -51 -41 -70 -8 -19 -46 -73
-86 -119 -39 -47 -71 -88 -71 -92 0 -11 -154 -121 -215 -154 -27 -15 -66 -37
-85 -50 -228 -148 -270 -173 -323 -195 -20 -9 -46 -23 -56 -32 -10 -9 -36 -21
-57 -28 -43 -14 -45 -15 -100 -50 -21 -14 -77 -43 -124 -64 -47 -22 -117 -54
-156 -72 -39 -19 -76 -34 -82 -34 -5 0 -36 -13 -67 -30 -31 -16 -64 -30 -74
-30 -9 0 -38 -14 -66 -30 -67 -39 -113 -62 -225 -111 -330 -145 -350 -155
-350 -187 0 -20 78 -12 215 22 55 13 136 32 180 41 44 9 141 37 215 62 74 25
146 47 160 50 14 3 53 18 86 34 34 16 65 29 69 29 10 0 156 67 175 80 8 6 40
22 70 35 30 14 69 32 85 41 17 10 71 39 120 67 163 90 341 201 426 265 139
104 190 148 236 200 68 77 159 211 184 268 20 49 39 50 39 3 0 -41 40 -116
100 -188 64 -78 191 -145 269 -143 130 3 216 103 240 278 10 70 9 84 -9 138
-30 90 -117 192 -197 232 -24 11 -13 38 53 139 70 107 175 225 199 225 16 0
38 -38 49 -82 10 -44 72 -143 110 -176 80 -70 170 -87 307 -58 73 16 212 62
244 82 11 7 43 19 71 27 28 8 60 20 70 25 90 50 372 152 418 152 12 0 49 10
82 22 54 21 77 23 253 23 l193 0 22 30 c33 44 78 159 70 178 -5 13 -19 17 -63
18 -31 0 -99 7 -151 15 -52 7 -115 14 -140 14 -25 0 -58 7 -74 15 -40 21 -104
35 -201 44 -44 4 -96 15 -115 24 -19 8 -57 18 -85 22 -58 7 -258 61 -288 77
-11 6 -52 19 -91 28 -39 10 -91 25 -116 33 -126 41 -172 52 -181 43z m-810
-1097 c29 -11 67 -30 84 -42 49 -36 167 -153 167 -165 0 -6 -11 -18 -24 -27
-21 -14 -29 -14 -78 -1 -64 17 -126 47 -150 73 -9 10 -30 31 -47 47 -42 40
-76 113 -60 132 13 16 21 14 108 -17z"/>
<path fill="#F9DC3E" d="M11766 3338 c-9 -12 -16 -32 -16 -43 0 -11 -7 -39 -15 -62 -13 -37
-13 -47 2 -95 10 -29 18 -57 18 -63 0 -5 4 -15 8 -21 6 -10 13 -40 48 -199 5
-22 20 -71 35 -110 14 -38 29 -86 33 -105 4 -19 12 -44 18 -55 22 -41 73 -210
80 -262 5 -47 3 -56 -16 -74 -103 -96 -269 -46 -379 113 -42 61 -59 122 -41
145 8 9 9 14 3 10 -16 -9 -26 16 -35 88 -4 33 -12 87 -18 120 -6 33 -18 103
-27 155 -31 181 -88 374 -118 399 -30 25 -43 4 -92 -157 -2 -7 -8 -10 -14 -7
-6 4 -6 -4 1 -21 15 -41 56 -206 57 -229 0 -11 5 -49 11 -85 6 -36 16 -105 21
-155 6 -49 13 -96 15 -103 8 -22 -44 -218 -67 -257 -43 -70 -86 -110 -154
-145 -63 -32 -76 -35 -154 -35 -74 1 -90 4 -125 27 -63 41 -85 67 -116 133
-27 58 -29 70 -30 186 0 68 5 159 11 202 10 73 16 85 71 159 52 71 73 118 53
118 -3 0 -28 -18 -55 -41 -27 -23 -55 -39 -63 -36 -8 3 -15 28 -19 64 -3 32
-10 72 -17 88 -11 28 -12 29 -25 12 -18 -26 -62 -162 -70 -220 -7 -55 -13 -62
-121 -136 -132 -91 -242 -189 -279 -246 -63 -99 -92 -167 -98 -233 -8 -78 6
-104 69 -128 46 -18 143 -15 167 4 7 6 30 15 52 22 67 20 145 80 175 135 46
82 65 73 75 -35 13 -128 97 -257 196 -299 44 -19 61 -21 130 -15 198 17 348
156 423 391 14 45 26 89 26 98 0 27 15 15 34 -28 95 -215 144 -276 258 -321
79 -31 140 -33 199 -6 54 24 145 93 142 108 -1 5 9 43 23 84 35 103 41 231 15
340 -11 46 -23 99 -27 118 -3 19 -9 40 -13 45 -4 6 -15 39 -25 75 -10 36 -24
77 -32 92 -8 14 -14 36 -14 48 0 11 -9 39 -20 62 -11 23 -23 57 -26 76 -7 37
-3 38 48 17 31 -12 33 22 4 66 -15 22 -47 74 -72 117 -44 75 -90 132 -105 132
-4 0 -15 -10 -23 -22z m-1172 -800 c10 -90 7 -120 -18 -163 -14 -23 -42 -53
-63 -67 -43 -30 -144 -58 -207 -58 -39 0 -86 21 -86 39 0 16 147 151 164 151
3 0 47 34 98 75 51 41 96 75 99 75 3 0 9 -24 13 -52z"/>
<path fill="#F9DC3E" d="M4525 2210 c-29 -9 -83 -66 -72 -76 2 -3 25 1 50 7 39 11 48 10 71
-5 l27 -17 -50 -63 c-57 -74 -101 -155 -101 -189 0 -60 72 -82 173 -52 58 17
190 110 195 138 5 23 -9 22 -51 -7 -73 -50 -219 -73 -251 -40 -20 19 -20 23 2
55 20 31 130 139 140 139 23 0 53 92 35 103 -17 11 -140 15 -168 7z"/>
<path fill="#F9DC3E" d="M15107 2176 c-12 -13 -31 -41 -42 -63 -11 -21 -28 -50 -38 -64 -15
-22 -17 -31 -8 -48 7 -11 15 -21 19 -21 5 0 32 -20 61 -45 30 -25 67 -53 83
-61 34 -18 78 -11 78 11 0 8 13 35 29 61 17 25 33 60 36 76 6 27 1 36 -56 93
-95 92 -123 103 -162 61z"/>
<path fill="#F9DC3E" d="M7920 2053 c-23 -9 -51 -35 -66 -65 l-14 -26 78 5 c66 5 80 3 92 -12
15 -18 6 -29 -88 -107 -39 -32 -74 -119 -76 -186 -1 -35 4 -47 24 -62 24 -18
104 -38 125 -31 6 2 34 10 63 17 86 20 181 92 238 178 26 41 12 39 -41 -5 -81
-67 -138 -91 -224 -94 -94 -4 -130 12 -131 59 0 26 62 116 99 143 47 36 87
112 82 160 -2 23 -117 42 -161 26z"/>
<path fill="#F9DC3E" d="M5647 1773 c-19 -38 -37 -81 -41 -96 -8 -33 0 -67 16 -67 7 0 48 -17
92 -39 115 -55 122 -56 140 -29 25 39 68 177 61 198 -5 17 -96 60 -126 60 -5
0 -27 9 -49 20 -22 11 -44 20 -49 20 -6 0 -26 -30 -44 -67z"/>
<path fill="#F9DC3E" d="M14691 1816 c-6 -7 -12 -30 -13 -52 -3 -31 -8 -40 -25 -42 -14 -2
-27 5 -39 22 -22 34 -30 33 -44 -8 -24 -74 -87 -107 -134 -71 -26 20 -90 19
-106 0 -7 -9 -27 -22 -44 -30 -43 -21 -128 -108 -176 -181 -52 -79 -244 -250
-315 -280 -19 -7 -36 -18 -40 -24 -12 -20 23 -10 104 30 45 22 92 40 106 40
37 0 79 45 209 223 45 61 141 127 185 127 20 0 42 -5 48 -11 26 -26 106 -5
147 40 13 14 31 21 57 21 70 0 99 27 124 118 14 51 -18 109 -44 78z"/>
<path fill="#F9DC3E" d="M10432 1575 c-40 -19 -107 -46 -150 -61 -42 -14 -84 -32 -92 -39 -20
-18 -304 -153 -338 -162 -15 -3 -47 -17 -72 -31 -25 -13 -79 -42 -120 -63 -41
-21 -86 -45 -100 -53 -14 -8 -106 -55 -205 -104 -246 -122 -322 -176 -299
-213 7 -12 37 -12 50 1 13 13 144 83 254 135 52 25 111 54 130 64 101 55 333
171 343 171 7 0 52 20 102 44 200 97 301 144 325 151 14 4 32 13 40 20 8 7 68
38 133 70 101 49 118 60 115 78 -4 32 -34 30 -116 -8z"/>
<path fill="#F9DC3E" d="M3302 1543 c-11 -16 -29 -47 -41 -70 -11 -23 -26 -45 -32 -48 -6 -4
-49 19 -97 51 -103 70 -113 75 -130 61 -15 -12 -82 -153 -82 -172 0 -17 98
-104 148 -132 40 -22 40 -22 65 -3 13 11 37 44 52 74 15 30 35 58 43 61 9 3
54 -20 109 -55 52 -33 97 -60 101 -60 20 1 53 44 82 104 30 64 30 69 15 92
-21 32 -163 124 -192 124 -12 0 -30 -12 -41 -27z"/>
<path fill="#F9DC3E" d="M15375 1525 c-80 -38 -184 -85 -229 -102 -22 -9 -61 -29 -86 -44 -53
-32 -248 -136 -337 -180 -79 -39 -113 -71 -113 -104 0 -31 26 -33 72 -5 18 11
40 20 48 20 8 1 31 14 50 30 19 17 38 30 42 30 5 0 64 32 132 70 68 39 129 70
136 70 6 0 42 18 78 39 37 21 83 46 102 55 19 9 49 25 65 36 33 21 93 50 105
50 14 0 20 32 9 46 -14 18 -14 18 -74 -11z"/>
<path fill="#F9DC3E" d="M13434 1430 c-38 -15 -78 -100 -54 -115 6 -4 20 1 30 10 20 18 51 17
57 -2 3 -7 -6 -17 -19 -22 -31 -12 -94 -79 -107 -114 -14 -37 4 -212 25 -244
8 -13 28 -96 43 -183 15 -88 31 -163 35 -168 4 -4 13 1 20 10 10 14 10 32 -1
90 -8 40 -18 105 -23 143 -11 87 -34 176 -53 207 -8 13 -17 40 -20 61 -5 33
-2 42 25 67 17 17 40 30 50 30 11 0 28 5 39 11 11 5 39 13 62 17 36 6 43 12
55 44 12 32 12 40 -4 73 -9 20 -24 39 -32 42 -8 3 -25 17 -38 29 -24 25 -53
29 -90 14z"/>
<path fill="#F9DC3E" d="M2495 1278 c-38 -22 -95 -49 -125 -60 -30 -12 -75 -33 -100 -48 -26
-15 -62 -34 -81 -42 -62 -27 -84 -38 -134 -68 -75 -43 -192 -98 -239 -112 -22
-6 -54 -22 -71 -34 -16 -12 -64 -38 -105 -59 -89 -46 -196 -119 -209 -143 -6
-10 -6 -24 -1 -32 7 -11 19 -7 62 19 84 53 263 147 333 176 76 31 180 86 232
123 15 11 49 27 75 36 26 8 92 38 145 65 54 26 130 60 168 74 134 49 175 78
175 124 0 35 -42 28 -125 -19z"/>
<path fill="#F9DC3E" d="M13025 1293 c-22 -8 -46 -20 -55 -27 -8 -8 -69 -41 -135 -75 -66 -33
-145 -73 -175 -89 -57 -30 -103 -52 -350 -168 -157 -73 -192 -97 -188 -129 5
-33 31 -29 145 25 59 29 142 68 183 87 41 19 89 42 105 51 87 45 246 122 254
122 5 0 14 7 21 14 6 8 35 23 63 32 78 26 204 102 211 127 14 52 -3 58 -79 30z"/>
<path fill="#F9DC3E" d="M6725 1140 c-27 -16 -66 -37 -85 -46 -114 -53 -420 -207 -445 -224
-16 -11 -46 -25 -65 -31 -19 -7 -48 -22 -65 -34 -31 -24 -83 -52 -324 -176
-144 -74 -171 -98 -156 -137 4 -11 17 -7 63 19 84 48 305 159 316 159 5 0 23
10 40 23 41 31 370 202 656 340 111 54 166 96 157 121 -9 23 -35 20 -92 -14z"/>
<path fill="#F9DC3E" d="M3272 967 c-28 -30 -60 -72 -70 -94 -25 -56 -73 -108 -124 -134 -23
-12 -59 -34 -78 -49 -49 -37 -123 -77 -200 -106 -36 -14 -78 -32 -95 -39 -73
-34 -129 -55 -163 -61 -20 -4 -44 -12 -52 -19 -8 -6 -31 -18 -50 -25 -90 -34
-72 -57 32 -40 73 11 190 52 283 98 27 14 62 28 77 33 81 23 333 196 378 259
26 36 37 37 98 7 36 -18 55 -22 81 -16 44 9 51 22 51 92 0 66 -19 121 -48 136
-41 22 -66 12 -120 -42z m78 -62 c10 -13 9 -15 -8 -15 -22 0 -36 13 -25 24 10
10 20 7 33 -9z"/>
</g>
</svg>